<?xml version="1.0" encoding="UTF-8"?><svg xmlns="http://www.w3.org/2000/svg" xmlns:xlink="http://www.w3.org/1999/xlink" contentScriptType="text/ecmascript" width="375" zoomAndPan="magnify" contentStyleType="text/css" viewBox="0 0 375 374.999991" height="374.999991" preserveAspectRatio="xMidYMid meet" version="1.0"><defs><clipPath id="clip-0"><path d="M 121.417969 134 L 253 134 L 253 241.480469 L 121.417969 241.480469 Z M 121.417969 134 " clip-rule="nonzero"/></clipPath></defs><g clip-path="url(#clip-0)"><path fill="rgb(100%, 87.059021%, 34.899902%)" d="M 122.21875 185.617188 C 122.148438 185.839844 122.070312 186.054688 122.015625 186.285156 C 121.921875 186.777344 121.878906 187.277344 121.878906 187.777344 C 121.878906 188.300781 121.929688 188.820312 122.027344 189.335938 C 122.070312 189.496094 122.15625 189.742188 122.238281 189.972656 C 122.238281 190.03125 122.441406 190.640625 122.457031 190.6875 C 122.589844 191.023438 122.753906 191.34375 122.949219 191.644531 C 122.949219 191.6875 123.238281 192.1875 123.257812 192.242188 C 123.519531 192.613281 123.8125 192.960938 124.132812 193.285156 L 169.773438 238.941406 C 170.140625 239.296875 170.539062 239.613281 170.96875 239.890625 C 171.398438 240.167969 171.851562 240.402344 172.324219 240.59375 C 172.796875 240.785156 173.285156 240.929688 173.789062 241.027344 C 174.289062 241.125 174.796875 241.171875 175.308594 241.171875 C 175.820312 241.171875 176.324219 241.125 176.828125 241.027344 C 177.328125 240.929688 177.816406 240.785156 178.292969 240.59375 C 178.765625 240.402344 179.21875 240.167969 179.648438 239.890625 C 180.074219 239.613281 180.476562 239.296875 180.84375 238.941406 C 181.207031 238.578125 181.527344 238.183594 181.8125 237.757812 C 182.097656 237.328125 182.339844 236.878906 182.535156 236.40625 C 182.730469 235.929688 182.878906 235.441406 182.976562 234.9375 C 183.078125 234.433594 183.128906 233.925781 183.128906 233.410156 C 183.128906 232.898438 183.078125 232.390625 182.976562 231.886719 C 182.878906 231.382812 182.730469 230.894531 182.535156 230.417969 C 182.339844 229.945312 182.097656 229.492188 181.8125 229.066406 C 181.527344 228.640625 181.207031 228.246094 180.84375 227.878906 L 153.679688 200.691406 C 153.253906 200.261719 152.980469 199.753906 152.863281 199.164062 C 152.746094 198.570312 152.800781 197.996094 153.03125 197.4375 C 153.261719 196.878906 153.628906 196.433594 154.128906 196.097656 C 154.628906 195.761719 155.183594 195.59375 155.785156 195.59375 L 244.527344 195.59375 C 245.042969 195.59375 245.550781 195.542969 246.054688 195.445312 C 246.558594 195.34375 247.046875 195.195312 247.519531 195 C 247.992188 194.800781 248.445312 194.5625 248.871094 194.277344 C 249.296875 193.992188 249.691406 193.667969 250.054688 193.304688 C 250.417969 192.941406 250.742188 192.542969 251.027344 192.117188 C 251.3125 191.691406 251.554688 191.238281 251.75 190.765625 C 251.945312 190.289062 252.09375 189.800781 252.195312 189.296875 C 252.292969 188.792969 252.34375 188.285156 252.34375 187.773438 C 252.34375 187.257812 252.292969 186.75 252.195312 186.246094 C 252.09375 185.742188 251.945312 185.253906 251.75 184.777344 C 251.554688 184.304688 251.3125 183.851562 251.027344 183.425781 C 250.742188 183 250.417969 182.601562 250.054688 182.238281 C 249.691406 181.875 249.296875 181.550781 248.871094 181.265625 C 248.445312 180.980469 247.992188 180.742188 247.519531 180.542969 C 247.046875 180.347656 246.558594 180.199219 246.054688 180.097656 C 245.550781 180 245.042969 179.949219 244.527344 179.949219 L 155.785156 179.949219 C 155.183594 179.949219 154.628906 179.78125 154.128906 179.445312 C 153.628906 179.109375 153.261719 178.664062 153.03125 178.105469 C 152.800781 177.546875 152.746094 176.972656 152.863281 176.378906 C 152.980469 175.789062 153.253906 175.28125 153.679688 174.851562 L 180.84375 147.675781 C 181.207031 147.308594 181.527344 146.914062 181.8125 146.484375 C 182.097656 146.058594 182.335938 145.605469 182.53125 145.132812 C 182.730469 144.65625 182.875 144.167969 182.976562 143.664062 C 183.078125 143.160156 183.125 142.652344 183.125 142.136719 C 183.125 141.625 183.078125 141.113281 182.976562 140.609375 C 182.875 140.105469 182.730469 139.617188 182.53125 139.140625 C 182.335938 138.667969 182.097656 138.214844 181.8125 137.789062 C 181.527344 137.359375 181.207031 136.964844 180.84375 136.601562 C 180.472656 136.246094 180.074219 135.933594 179.644531 135.65625 C 179.214844 135.378906 178.765625 135.148438 178.289062 134.957031 C 177.816406 134.765625 177.328125 134.625 176.828125 134.527344 C 176.328125 134.429688 175.820312 134.382812 175.3125 134.382812 C 174.800781 134.382812 174.292969 134.429688 173.792969 134.527344 C 173.292969 134.625 172.804688 134.765625 172.332031 134.957031 C 171.855469 135.148438 171.40625 135.378906 170.976562 135.65625 C 170.546875 135.933594 170.148438 136.246094 169.777344 136.601562 L 124.167969 182.242188 C 123.804688 182.605469 123.484375 183 123.203125 183.433594 C 122.796875 184.160156 122.609375 184.441406 122.496094 184.753906 " fill-opacity="1" fill-rule="nonzero"/></g></svg>